<svg xmlns="http://www.w3.org/2000/svg" viewBox="0 0 158.56 51.32"><defs><style>.cls-1,.cls-7{fill:#7b2ee8;}.cls-2{fill:#9b64e8;}.cls-3,.cls-6,.cls-8{fill:#fff;}.cls-4,.cls-6,.cls-7{font-size:25.82px;font-family:OpenSans-ExtraBoldItalic, OpenSans ExtraBoldItalic;font-weight:800;font-style:italic;}.cls-4{fill:#e13d00;}.cls-5{letter-spacing:0em;}.cls-8{stroke:#870cf2;stroke-miterlimit:10;stroke-width:0.5px;}</style></defs><g id="Layer_2" data-name="Layer 2"><g id="Background"><rect class="cls-1" x="4.29" y="17.47" width="150.18" height="33.85" rx="12.07"/><rect class="cls-1" x="3.64" y="16.83" width="150.18" height="33.85" rx="12.07"/><rect class="cls-1" x="3" y="16.19" width="150.18" height="33.85" rx="12.07"/><rect class="cls-1" x="2.36" y="15.54" width="150.18" height="33.85" rx="12.07"/><rect class="cls-1" x="1.71" y="14.9" width="150.18" height="33.85" rx="12.07"/><rect class="cls-1" x="1.07" y="14.26" width="150.18" height="33.85" rx="12.07"/><rect class="cls-2" y="13.19" width="150.18" height="33.85" rx="12.07"/><rect class="cls-3" x="1.07" y="14.26" width="150.18" height="33.85" rx="12.07"/><text class="cls-4" transform="translate(4.92 39.43)">Guruji-<tspan class="cls-5" x="73.82" y="0">P</tspan><tspan x="87.42" y="0">lus</tspan></text><text class="cls-6" transform="translate(5.83 40.33)">Guruji-<tspan class="cls-5" x="73.82" y="0">P</tspan><tspan x="87.42" y="0">lus</tspan></text><text class="cls-7" transform="translate(4.92 39.43)">Guruji-<tspan class="cls-5" x="73.82" y="0">P</tspan><tspan x="87.42" y="0">lus</tspan></text><polygon class="cls-8" points="147.54 0.52 150.1 5.21 154.79 7.77 150.1 10.33 147.54 15.02 144.98 10.33 140.29 7.77 144.98 5.21 147.54 0.52"/><polygon class="cls-8" points="142.1 13.72 143.84 16.9 147.02 18.64 143.84 20.38 142.1 23.56 140.37 20.38 137.19 18.64 140.37 16.9 142.1 13.72"/><polygon class="cls-8" points="153.93 11.81 155.38 14.47 158.04 15.92 155.38 17.38 153.93 20.04 152.47 17.38 149.81 15.92 152.47 14.47 153.93 11.81"/></g></g></svg>