<svg xmlns="http://www.w3.org/2000/svg" viewBox="0 0 96.41 100"><defs><style>.cls-1,.cls-2,.cls-4{fill:#fff;}.cls-2{font-size:18.22px;}.cls-2,.cls-4{font-family:NimbusSansBeckerPBla;}.cls-3{letter-spacing:0.01em;}.cls-4{font-size:12.16px;}.cls-5{letter-spacing:-0.02em;}.cls-6{letter-spacing:0em;}.cls-7{letter-spacing:0em;}</style></defs><g id="Layer_2" data-name="Layer 2"><g id="Layer_1-2" data-name="Layer 1"><path class="cls-1" d="M48.21,100a1,1,0,0,1-.49-.13L.49,72.6A1,1,0,0,1,0,71.75V17.22a1,1,0,0,1,.66-.93L47.89.05a1,1,0,0,1,.64,0L95.75,16.29a1,1,0,0,1,.66.93V71.75a1,1,0,0,1-.49.85L48.7,99.87A1,1,0,0,1,48.21,100ZM2,71.19l46.25,26.7,46.24-26.7V17.92L48.21,2,2,17.92Z"/><path class="cls-1" d="M48.21,96.11a.54.54,0,0,1-.25-.06L3.68,70.48a.48.48,0,0,1-.25-.43V19.32a.47.47,0,0,1,.33-.46L48.05,3.63a.44.44,0,0,1,.32,0L92.65,18.86a.47.47,0,0,1,.33.46V70.05a.5.5,0,0,1-.24.43L48.45,96.05A.5.5,0,0,1,48.21,96.11ZM4.41,69.77l43.8,25.29L92,69.77V19.67L48.21,4.61,4.41,19.67Z"/><path class="cls-1" d="M59.61,13.42l-1,4.59c-.25,1.19-1.57,1.76-3,1.42a2.83,2.83,0,0,1-2.36-2.71c.17-1.89.25-2.84.41-4.73-.6-.09-.9-.12-1.5-.18-.11,1.9-.16,2.85-.27,4.74a2.78,2.78,0,0,1-5.39,0c-.1-1.89-.16-2.84-.27-4.74-.6.06-.9.1-1.5.18.17,1.89.25,2.84.41,4.73a2.81,2.81,0,0,1-2.35,2.71c-1.4.34-2.72-.23-3-1.42l-1-4.59c-.59.2-.88.31-1.46.54,1.07,4.51,1.65,6.91,2.66,11.17H58.41c.58-2.45.93-3.94,1.57-6.63.44-1.81.65-2.72,1.09-4.54C60.49,13.73,60.19,13.62,59.61,13.42Z"/><path class="cls-1" d="M57.32,28.14H41.25a.87.87,0,0,1-.87-.87V26H58.2v1.27A.87.87,0,0,1,57.32,28.14Z"/><polygon class="cls-1" points="61.57 25.2 76.52 26.67 61.57 28.14 61.57 25.2"/><polygon class="cls-1" points="34.85 28.14 19.89 26.67 34.85 25.2 34.85 28.14"/><path class="cls-1" d="M10.6,32.76s1.17-.09,3.23-.19,5-.26,8.52-.37,7.64-.23,12-.3l6.79-.09,7,0,7,0c2.32,0,4.59.06,6.8.09,4.4.06,8.52.17,12,.3s6.47.28,8.52.37,3.24.19,3.24.19-1.18.09-3.24.19-5,.26-8.52.37-7.64.23-12,.3c-2.21,0-4.48.09-6.8.09l-7,0-7,0-6.79-.09c-4.41-.07-8.52-.17-12-.3S15.89,33,13.83,33,10.6,32.76,10.6,32.76Z"/><path class="cls-1" d="M85.82,70s-1.18.09-3.24.19-5,.26-8.52.37-7.64.24-12,.3l-6.8.09-7,0-7,0c-2.31,0-4.59-.06-6.79-.08-4.41-.07-8.52-.18-12-.3s-6.46-.29-8.52-.38S10.6,70,10.6,70s1.17-.08,3.23-.19,5-.26,8.52-.37,7.64-.23,12-.3c2.2,0,4.48-.08,6.79-.08l7,0,7,0,6.8.08c4.4.07,8.52.18,12,.3s6.47.29,8.52.37S85.82,70,85.82,70Z"/><polygon class="cls-1" points="22.2 72.11 22.84 74.07 24.91 74.07 23.24 75.29 23.88 77.26 22.2 76.04 20.53 77.26 21.17 75.29 19.5 74.07 21.56 74.07 22.2 72.11"/><polygon class="cls-1" points="32.5 72.11 33.77 76.04 37.91 76.04 34.56 78.47 35.84 82.41 32.5 79.98 29.15 82.41 30.43 78.47 27.08 76.04 31.22 76.04 32.5 72.11"/><polygon class="cls-1" points="48.2 72.11 50.12 78.01 56.33 78.01 51.31 81.66 53.23 87.56 48.2 83.91 43.18 87.56 45.1 81.66 40.08 78.01 46.29 78.01 48.2 72.11"/><polygon class="cls-1" points="63.91 72.11 65.19 76.04 69.33 76.04 65.98 78.47 67.26 82.41 63.91 79.98 60.57 82.41 61.85 78.47 58.5 76.04 62.64 76.04 63.91 72.11"/><polygon class="cls-1" points="74.21 72.11 74.85 74.07 76.92 74.07 75.24 75.29 75.88 77.26 74.21 76.04 72.53 77.26 73.17 75.29 71.5 74.07 73.57 74.07 74.21 72.11"/><text class="cls-2" transform="translate(24.87 52.6)"><tspan class="cls-3">I</tspan><tspan x="4.54" y="0">ndias</tspan></text><text class="cls-4" transform="translate(22.7 64.45)">N<tspan class="cls-5" x="8" y="0">o</tspan><tspan x="14.38" y="0">. 1 </tspan><tspan class="cls-6" x="28.29" y="0">A</tspan><tspan class="cls-7" x="35.7" y="0">pp</tspan></text></g></g></svg>