<svg xmlns="http://www.w3.org/2000/svg" viewBox="0 0 100 100"><defs><style>.cls-1,.cls-2{fill:#fff;}.cls-2{font-size:15.11px;font-family:NimbusSansBeckerPBla;}.cls-3{letter-spacing:-0.02em;}.cls-4{letter-spacing:-0.03em;}.cls-5{letter-spacing:-0.07em;}</style></defs><g id="Layer_2" data-name="Layer 2"><g id="Layer_1-2" data-name="Layer 1"><path class="cls-1" d="M48,26.11c.85-.07,1.43-.1,2-.1s1.16,0,2,.1a20.58,20.58,0,0,1,2.07.28,20,20,0,0,1,2.33.55,23.69,23.69,0,0,0-1.26-4.44s-1.22,2.36-1.79,2.15c-2-.77-2.8-5.07-3.36-7.52-.56,2.45-1.33,6.76-3.36,7.52-.57.21-1.79-2.15-1.79-2.15a23.69,23.69,0,0,0-1.26,4.44,20,20,0,0,1,2.33-.55C46.74,26.24,47.17,26.19,48,26.11Z"/><path class="cls-1" d="M54,27a17.47,17.47,0,0,0-2-.27,18.35,18.35,0,0,0-3.92,0A17.47,17.47,0,0,0,46,27a18.94,18.94,0,0,0-2.55.62v.49a.55.55,0,0,0,.6.49H55.93a.55.55,0,0,0,.6-.49V27.6A18.94,18.94,0,0,0,54,27Z"/><path class="cls-1" d="M99.88,46.4A50.07,50.07,0,0,0,50,0h0A50.07,50.07,0,0,0,.12,46.4C.05,47.59,0,48.79,0,50a50,50,0,0,0,100,0C100,48.79,100,47.59,99.88,46.4ZM89.53,29.6,90.9,33l3.64-.24-2.81,2.33,1.37,3.4L90,36.52l-2.8,2.34.89-3.54L85,33.38l3.64-.25Zm-5.2-8.15,3.41-1.29-2,3.05L88,26.06l-3.52-1-2,3.06-.18-3.65-3.52-1,3.42-1.29-.18-3.65Zm-13.15-11,3,2.07,2.9-2.22-1,3.5,3,2.07L75.4,16l-1,3.49L73.15,16l-3.65.09,2.89-2.22ZM61.85,7.51l2.13-3,0,3.65,3.49,1.1L64,10.45l0,3.65-2.17-2.93-3.46,1.14,2.12-3L58.37,6.41Zm-13-1.25L50,2.79l1.13,3.47h3.65l-3,2.14L53,11.88,50,9.73l-3,2.15L48.18,8.4l-3-2.14ZM36,8.19l0-3.65,2.12,3,3.48-1.1L39.46,9.35l2.12,3-3.46-1.14L36,14.1l0-3.65L32.51,9.29Zm-13.08,2.1,2.91,2.22,3-2.07-1.21,3.44L30.5,16.1,26.85,16l-1.21,3.44-1-3.49L21,15.86l3-2.07ZM12.25,20.16l3.42,1.29L18,18.6l-.17,3.65,3.41,1.29-3.52,1-.18,3.65-2-3.06-3.53,1,2.28-2.85ZM9.11,33l1.36-3.38.89,3.53,3.64.25-3.09,1.94.89,3.54L10,36.53,6.91,38.47l1.36-3.39-2.8-2.34ZM6.2,45.69l.28-3.64,1.91,3.12,3.55-.86L9.58,47.09l1.91,3.11L8.12,48.8,5.75,51.58,6,47.94,2.66,46.55Zm1,15.39-3.64-.3,3.12-1.89-.83-3.56,2.76,2.39,3.12-1.89-1.42,3.36,2.78,2.39-3.64-.3L8,64.64Zm6.94,11.83-.35,3.63-1.86-3.15-3.56.78,2.42-2.73L8.93,68.29l3.34,1.46L14.7,67l-.36,3.63,3.34,1.46Zm9,13.32-2.66-2.49-3.19,1.78,1.53-3.32L16.1,79.72l3.62.44,1.54-3.31L22,80.43l3.62.44L22.4,82.64Zm12,6.13-3.27-1.6-2.55,2.62.52-3.62-3.28-1.6,3.59-.63.52-3.62,1.7,3.23,3.61-.63-2.55,2.62ZM44.49,94l-1.65,3.26-.58-3.61L38.66,93l3.24-1.67-.58-3.61,2.59,2.59,3.25-1.68-1.65,3.26L48.1,94.5ZM14.34,50A35.62,35.62,0,0,1,47.26,14.45c.91-.07,1.83-.11,2.74-.11A35.66,35.66,0,1,1,14.34,50Zm43.4,43.6-.59,3.61L55.51,94l-3.6.55,2.59-2.57-1.66-3.26,3.25,1.68,2.59-2.59-.58,3.61L61.35,93Zm13.05-.22-2.55-2.62L65,92.36l1.72-3.23-2.55-2.62,3.6.62,1.7-3.22.51,3.62,3.61.62-3.28,1.61Zm12-7.86-3.19-1.78L76.9,86.23l.71-3.59-3.19-1.77L78,80.43l.7-3.58,1.54,3.31,3.62-.44L81.23,82.2Zm5.32-12.13-1.85,3.14-.36-3.63-3.57-.78,3.35-1.46L85.3,67l2.43,2.73,3.34-1.46-1.84,3.15,2.42,2.73Zm4.74-12.31L92,64.64l-1.42-3.36-3.63.3,2.77-2.39-1.42-3.36,3.12,1.89,2.77-2.39-.84,3.56,3.12,1.89ZM94,47.94l.27,3.64L91.88,48.8l-3.37,1.4,1.91-3.11-2.36-2.78,3.55.85,1.91-3.11.27,3.64,3.56.86Z"/><path class="cls-1" d="M31.77,60.91a5.79,5.79,0,0,1-4.29,2,4.7,4.7,0,0,1-5-5.08c0-3.26,2.45-5.22,4.3-5.22a2.59,2.59,0,0,1,2.18,1l.33-.8h2.22v4H29c0-.93-.5-1.79-1.5-1.79s-1.69,1.26-1.69,2.81.72,2.66,2.07,2.66a3.4,3.4,0,0,0,2.25-1.39Z"/><path class="cls-1" d="M36.93,52.78v1.87h-.88v2.14h2.69V54.65h-.83V52.78h4.6v1.87h-.82v6.16h.82v1.87h-4.6V60.81h.83V58.67H36.05v2.14h.88v1.87H32.34V60.81h.78V54.65h-.78V52.78Z"/><path class="cls-1" d="M43.08,57.68a4.84,4.84,0,0,1,5-5.17c3.47,0,5.08,2.09,5.08,5.27s-1.78,5.16-5,5.16C45.19,62.94,43.08,61.22,43.08,57.68Zm6.51.1c0-1.71-.46-3.08-1.55-3.08-.87,0-1.46,1.23-1.46,3s.66,3,1.57,3S49.59,59.54,49.59,57.78Z"/><path class="cls-1" d="M58.41,52.78v1.87h-.88V60.8h.88v1.88H53.7V60.8h.9V54.65h-.9V52.78Z"/><path class="cls-1" d="M68.27,60.91a5.81,5.81,0,0,1-4.3,2,4.7,4.7,0,0,1-5-5.08c0-3.26,2.45-5.22,4.3-5.22a2.59,2.59,0,0,1,2.18,1l.33-.8H68v4H65.48C65.43,55.88,65,55,64,55s-1.68,1.26-1.68,2.81.72,2.66,2.07,2.66a3.4,3.4,0,0,0,2.25-1.39Z"/><path class="cls-1" d="M77.38,52.78v3.13H74.93V54.65H72.66v2h2.69v1.88H72.66V60.8h2.27V59.48h2.45v3.2H68.84V60.8h.89V54.65h-.89V52.78Z"/><text class="cls-2" transform="translate(24.54 47.17)"><tspan class="cls-3">P</tspan><tspan x="7.66" y="0">eopl</tspan><tspan class="cls-4" x="35.69" y="0">e</tspan><tspan class="cls-5" x="42.89" y="0">’</tspan><tspan x="44.93" y="0">s</tspan></text><rect class="cls-1" x="28.36" y="32.74" width="43.29" height="0.96"/><rect class="cls-1" x="32.52" y="29.98" width="34.97" height="0.96"/><path class="cls-1" d="M28.77,75c.38.33.78.65,1.18,1H70.06q.6-.47,1.17-1Z"/><path class="cls-1" d="M32.71,77.84c.54.34,1.08.66,1.63,1H65.67q.83-.45,1.62-1Z"/><path class="cls-1" d="M38.57,80.73a30,30,0,0,0,3,1H58.44a30.8,30.8,0,0,0,3-1Z"/><path class="cls-1" d="M25.78,72.07c.29.33.6.65.91,1H73.32c.31-.31.61-.63.91-1Z"/><path class="cls-1" d="M23.44,69.19c.23.32.47.64.72,1H75.85l.72-1Z"/><path class="cls-1" d="M21.57,66.3q.27.48.57,1H77.87c.19-.32.38-.64.56-1Z"/></g></g></svg>