<svg xmlns="http://www.w3.org/2000/svg" viewBox="0 0 116.34 100"><defs><style>.cls-1{fill:#fff;}</style></defs><g id="Layer_2" data-name="Layer 2"><g id="Layer_1-2" data-name="Layer 1"><polygon class="cls-1" points="58.17 10.92 56.83 15.05 52.48 15.05 56 17.61 54.66 21.74 58.17 19.18 61.69 21.74 60.34 17.61 63.86 15.05 59.51 15.05 58.17 10.92"/><polygon class="cls-1" points="48.54 14.44 47.53 17.53 44.27 17.53 46.91 19.45 45.91 22.55 48.54 20.63 51.18 22.55 50.17 19.45 52.81 17.53 49.55 17.53 48.54 14.44"/><polygon class="cls-1" points="40.99 21.62 40.32 23.68 38.15 23.68 39.9 24.96 39.23 27.02 40.99 25.75 42.75 27.02 42.08 24.96 43.83 23.68 41.66 23.68 40.99 21.62"/><polygon class="cls-1" points="67.8 14.44 66.8 17.53 63.54 17.53 66.17 19.45 65.17 22.55 67.8 20.63 70.44 22.55 69.43 19.45 72.07 17.53 68.81 17.53 67.8 14.44"/><polygon class="cls-1" points="76.03 23.68 75.35 21.62 74.68 23.68 72.51 23.68 74.27 24.96 73.6 27.02 75.35 25.75 77.11 27.02 76.44 24.96 78.2 23.68 76.03 23.68"/><path class="cls-1" d="M11.32,53.69,8.79,57.82,12.47,61l-1.85,4.48L14.75,68l-.32,1.34h4.28a43.95,43.95,0,1,1,78.93,0h4.28L101.59,68l4.13-2.54L103.87,61l3.69-3.15L105,53.69,108.17,50,105,46.31l2.53-4.13L103.87,39l1.85-4.48L101.59,32l1.13-4.71-4.47-1.86.37-4.83-4.71-1.13-.38-4.84-4.83-.38L87.56,9.55l-4.83.38L80.87,5.45,76.16,6.58,73.62,2.45,69.14,4.3,66,.62,61.86,3.15,58.17,0,54.48,3.15,50.35.62,47.2,4.3,42.72,2.45,40.18,6.58,35.47,5.45,33.61,9.93l-4.83-.38-1.13,4.71-4.83.38-.39,4.84-4.71,1.13.38,4.83L13.62,27.3,14.75,32l-4.13,2.54L12.47,39,8.79,42.18l2.53,4.13L8.17,50Z"/><polygon class="cls-1" points="10.93 97.33 10.93 76 0 76 10 88 0 100 25.85 100 18.47 97.33 10.93 97.33"/><polygon class="cls-1" points="50.35 99.39 53.7 97.33 48.6 97.33 50.35 99.39"/><polygon class="cls-1" points="65.99 99.39 67.75 97.33 62.64 97.33 65.99 99.39"/><polygon class="cls-1" points="116.34 76 105.41 76 105.41 97.33 97.87 97.33 90.49 100 116.34 100 106.34 88 116.34 76"/><polygon class="cls-1" points="58.17 100 61.3 97.33 55.04 97.33 58.17 100"/><path class="cls-1" d="M56.54,66.51a.3.3,0,0,1-.16-.05C41,56.79,41,46.4,41,32a.29.29,0,0,1,.29-.29H71.8a.29.29,0,0,1,.29.29,94.39,94.39,0,0,1-.59,13.2.27.27,0,0,1-.15.21.29.29,0,0,1-.27,0,5.14,5.14,0,0,0-2.32-.54,5.28,5.28,0,0,0-5.27,5.27v2.05a.29.29,0,0,1-.29.29H61.36v9.3a2.69,2.69,0,0,0,.17.93.28.28,0,0,1-.08.33,44.2,44.2,0,0,1-4.76,3.4A.3.3,0,0,1,56.54,66.51Zm-15-34.2c0,14,.1,24.15,15,33.55a43.7,43.7,0,0,0,4.38-3.12,3,3,0,0,1-.15-.94V52.21a.29.29,0,0,1,.3-.3H62.9V50.16a5.87,5.87,0,0,1,5.86-5.86,6,6,0,0,1,2.22.43,96.64,96.64,0,0,0,.52-12.42Z"/><path class="cls-1" d="M73.81,65H63.93a3.16,3.16,0,0,1-3.16-3.15V52.21a.29.29,0,0,1,.3-.3H76.46a.29.29,0,0,1,.3.3V62A3,3,0,0,1,73.81,65ZM61.36,52.5v9.3a2.57,2.57,0,0,0,2.57,2.57h9.88A2.36,2.36,0,0,0,76.17,62V52.5Z"/><path class="cls-1" d="M70.21,62.13H67.45a.28.28,0,0,1-.23-.11.28.28,0,0,1,0-.26L67.91,59a1.82,1.82,0,1,1,2.74-1.58A1.8,1.8,0,0,1,69.74,59l.75,2.81a.34.34,0,0,1,0,.26A.3.3,0,0,1,70.21,62.13Zm-2.38-.59h2l-.71-2.67a.3.3,0,0,1,.18-.35,1.24,1.24,0,1,0-.93,0,.3.3,0,0,1,.18.35Z"/><path class="cls-1" d="M74.33,52.5H63.2a.3.3,0,0,1-.3-.29V50.16a5.87,5.87,0,0,1,11.73,0v2.05A.3.3,0,0,1,74.33,52.5Zm-10.84-.59H74V50.16a5.28,5.28,0,0,0-10.55,0Z"/><path class="cls-1" d="M55.3,42.32a.85.85,0,0,0-.38.16.35.35,0,0,0-.1.24.32.32,0,0,0,.1.22.52.52,0,0,0,.38.13.81.81,0,0,0,.68-.31,1,1,0,0,0,.16-.59V42a1.08,1.08,0,0,1-.34.2A5.11,5.11,0,0,1,55.3,42.32Z"/><path class="cls-1" d="M63.4,40.69a.72.72,0,0,0-.58.25.85.85,0,0,0-.17.43H64.1A.8.8,0,0,0,64,41,.65.65,0,0,0,63.4,40.69Z"/><path class="cls-1" d="M45.65,35.7c0,10.66.1,18.41,10.89,25.58A32,32,0,0,0,60.77,58V52.21a.29.29,0,0,1,.3-.3H62.9V50.16a5.86,5.86,0,0,1,4.21-5.62,83.36,83.36,0,0,0,.31-8.84Zm7.15,7.53a2.65,2.65,0,0,1-2.15.82,3.22,3.22,0,0,1-1.86-.49A1.76,1.76,0,0,1,48,42h1.76a1.12,1.12,0,0,0,.11.34.84.84,0,0,0,.79.34,1.35,1.35,0,0,0,.57-.11.36.36,0,0,0,.22-.34.3.3,0,0,0-.19-.29,4,4,0,0,0-.48-.17,15.75,15.75,0,0,1-1.58-.51,1.55,1.55,0,0,1-1-1.51,1.59,1.59,0,0,1,.59-1.3,1.74,1.74,0,0,1,.69-.35A4.12,4.12,0,0,1,50.6,38a2.42,2.42,0,0,1,2,.73,1.92,1.92,0,0,1,.39,1.1H51.26a.88.88,0,0,0-.11-.27.77.77,0,0,0-.63-.23.87.87,0,0,0-.42.09.31.31,0,0,0-.18.28c0,.11.07.19.2.25l.71.21a9.49,9.49,0,0,1,1.26.37,1.61,1.61,0,0,1,1.13,1.55A1.76,1.76,0,0,1,52.8,43.23Zm3.47.69a.92.92,0,0,1-.08-.25,2,2,0,0,1,0-.22,1.61,1.61,0,0,1-.4.39,1.86,1.86,0,0,1-.93.21,1.57,1.57,0,0,1-1.12-.38,1.08,1.08,0,0,1-.35-.83,1.13,1.13,0,0,1,.6-1,4.32,4.32,0,0,1,1.17-.34,3.35,3.35,0,0,0,.84-.21.31.31,0,0,0,.18-.27.28.28,0,0,0-.06-.18.56.56,0,0,0-.46-.16.68.68,0,0,0-.5.16.33.33,0,0,0-.1.26v.09h-1.5a1.53,1.53,0,0,1,.43-1.07,2.33,2.33,0,0,1,1.61-.46,2.25,2.25,0,0,1,1.85.59,1.63,1.63,0,0,1,.28,1v1.8a1.45,1.45,0,0,0,.11.63.57.57,0,0,0,.19.23ZM61,39.23l-.25,0a.66.66,0,0,0-.47.13.45.45,0,0,0-.1.31v.1H61v.93H60.2v3.24H58.62V40.68H58v-.93h.58v-.2a1.54,1.54,0,0,1,.23-.9,1.15,1.15,0,0,1,.65-.46,2.81,2.81,0,0,1,.72-.08l.8,0Zm1.77,3.41a.79.79,0,0,0,.67.31.66.66,0,0,0,.61-.31h1.55a1.69,1.69,0,0,1-.58.88,2.39,2.39,0,0,1-.78.4,2.89,2.89,0,0,1-.88.13,2.57,2.57,0,0,1-1.25-.3,2,2,0,0,1-.89-1,2.32,2.32,0,0,1-.17-.9,2,2,0,0,1,.77-1.67,2.26,2.26,0,0,1,1.49-.51,2.3,2.3,0,0,1,1.52.52,2.57,2.57,0,0,1,.86,2.1H62.63A.91.91,0,0,0,62.79,42.64Z"/><path class="cls-1" d="M57.9,81.08a1.69,1.69,0,0,0-.57-.07H55.92v1.93H57.3a1.19,1.19,0,0,0,.72-.18.93.93,0,0,0,.38-.82A.83.83,0,0,0,57.9,81.08Z"/><path class="cls-1" d="M48.28,84c-.54,0-.81.48-.81,1.43s.28,1.4.84,1.4a.71.71,0,0,0,.48-.17c.23-.18.34-.6.34-1.26a2.18,2.18,0,0,0-.22-1.1A.7.7,0,0,0,48.28,84Z"/><path class="cls-1" d="M44.47,82.48c.23-.18.34-.6.34-1.26a2.15,2.15,0,0,0-.23-1.1.67.67,0,0,0-.62-.3c-.54,0-.81.48-.81,1.43s.27,1.4.83,1.4A.73.73,0,0,0,44.47,82.48Z"/><path class="cls-1" d="M28.51,80.6a1.25,1.25,0,0,0-.82.32A3.14,3.14,0,0,0,27,83.31a4,4,0,0,0,.42,2.06,1.25,1.25,0,0,0,.48.46,1.14,1.14,0,0,0,.62.17,1.24,1.24,0,0,0,.85-.32,3.08,3.08,0,0,0,.68-2.35C30.06,81.51,29.54,80.6,28.51,80.6Z"/><path class="cls-1" d="M37.09,80.6a1.25,1.25,0,0,0-.82.32,3.1,3.1,0,0,0-.68,2.39A4.05,4.05,0,0,0,36,85.37a1.41,1.41,0,0,0,.48.46,1.19,1.19,0,0,0,.63.17,1.23,1.23,0,0,0,.84-.32,3,3,0,0,0,.68-2.35C38.63,81.51,38.12,80.6,37.09,80.6Z"/><path class="cls-1" d="M12.93,71.33v24h90.48v-24ZM23.71,87.8H21V82.66H18.82V80.81a2.89,2.89,0,0,0,2-.66,1.86,1.86,0,0,0,.66-1.35h2.22Zm7.45-.69a4.2,4.2,0,0,1-5.25,0,5.56,5.56,0,0,1,0-7.62,4,4,0,0,1,2.68-.91,3.81,3.81,0,0,1,2.57.91,5.56,5.56,0,0,1,0,7.62Zm8.57,0a3.84,3.84,0,0,1-2.62.92,3.89,3.89,0,0,1-2.63-.92,5.56,5.56,0,0,1,0-7.62,4,4,0,0,1,2.68-.91,3.78,3.78,0,0,1,2.57.91,5.54,5.54,0,0,1,0,7.62Zm1.85-5.92a2.49,2.49,0,0,1,.65-1.8A2.33,2.33,0,0,1,44,78.63a2.21,2.21,0,0,1,1.45.51,2.53,2.53,0,0,1,.89,2.1,2.62,2.62,0,0,1-.6,1.79,2.27,2.27,0,0,1-1.79.8,2.23,2.23,0,0,1-1.62-.64A2.64,2.64,0,0,1,41.58,81.19Zm3.53,6.61H43.34l1.69-4a2.4,2.4,0,0,0,.87-.64,2.76,2.76,0,0,0,.64-1.89,3.88,3.88,0,0,0-.09-.82l.69-1.64h1.79l-1.71,4a2.68,2.68,0,0,0-.8.57,2.72,2.72,0,0,0-.7,1.92,3.46,3.46,0,0,0,.1.82Zm5-.62a2.4,2.4,0,0,1-3.41.15,2.67,2.67,0,0,1-.77-2,2.5,2.5,0,0,1,.66-1.8,2.33,2.33,0,0,1,1.79-.76,2.23,2.23,0,0,1,1.45.51,2.54,2.54,0,0,1,.89,2.1A2.65,2.65,0,0,1,50.08,87.18ZM60.46,84a3.37,3.37,0,0,1-2.72,1.07H55.92V87.8H53.21v-9h4.28a4.77,4.77,0,0,1,1.92.31,2.74,2.74,0,0,1,1.26,1.15A3.31,3.31,0,0,1,61.15,82,2.94,2.94,0,0,1,60.46,84Zm5.9-.66a2.72,2.72,0,0,0-.64-.09,1.65,1.65,0,0,0-1.48.68A2.19,2.19,0,0,0,64,85.09V87.8H61.52V81.32h2.23v.91a2.26,2.26,0,0,1,1.92-1.06,3.27,3.27,0,0,1,.69.1Zm2.79,4.48H66.7V81.32h2.45Zm0-7.25H66.7V78.8h2.45Zm2.5,7.25L69.5,81.32H72l1.13,3.85,1.14-3.85h2.53L74.6,87.8Zm9.58,0a1.61,1.61,0,0,1-.14-.38,3.47,3.47,0,0,1-.07-.35,2.46,2.46,0,0,1-.63.6A2.73,2.73,0,0,1,79,88a2.46,2.46,0,0,1-1.74-.59,1.64,1.64,0,0,1-.55-1.29,1.75,1.75,0,0,1,.94-1.62,6,6,0,0,1,1.8-.53,5.79,5.79,0,0,0,1.32-.33.46.46,0,0,0,.27-.42.36.36,0,0,0-.1-.27.85.85,0,0,0-.71-.25,1.11,1.11,0,0,0-.77.24.53.53,0,0,0-.16.41v.14H76.93a2.36,2.36,0,0,1,.67-1.67,3.64,3.64,0,0,1,2.51-.71c1.43,0,2.39.3,2.87.91a2.56,2.56,0,0,1,.43,1.63v2.81a2.43,2.43,0,0,0,.17,1,1.06,1.06,0,0,0,.3.35Zm5.52-2.08a1,1,0,0,0,.91.57.85.85,0,0,0,.82-.55,2.2,2.2,0,0,0,.14-.61l2.37,0A2.63,2.63,0,0,1,90.21,87a3.4,3.4,0,0,1-1.24.75,4.07,4.07,0,0,1-1.35.23,3.43,3.43,0,0,1-2.73-1.2,3.27,3.27,0,0,1-.84-2.25,3.4,3.4,0,0,1,.62-2,3.22,3.22,0,0,1,1.39-1.13,3.9,3.9,0,0,1,1.64-.32,3.26,3.26,0,0,1,2.6,1A2.87,2.87,0,0,1,91,83.73l-2.37,0c-.11-.63-.44-1-1-1a.88.88,0,0,0-.83.49,3,3,0,0,0-.06,2.41Zm9.7,1.52a4.79,4.79,0,0,1-1.31,2.22,2.17,2.17,0,0,1-1.33.41H91.9V88h.63c.52,0,.78-.16.78-.49a2.08,2.08,0,0,0-.16-.65l-2.1-5.53h2.57l1.13,4,1.13-4h2.56Z"/><path class="cls-1" d="M79.71,85.31a1.31,1.31,0,0,0-.59.26.51.51,0,0,0,0,.72.9.9,0,0,0,.6.19,1.21,1.21,0,0,0,1-.48,1.53,1.53,0,0,0,.25-.91v-.33a1.88,1.88,0,0,1-.52.31A7.6,7.6,0,0,1,79.71,85.31Z"/></g></g></svg>