<svg xmlns="http://www.w3.org/2000/svg" viewBox="0 0 507.92 131.81"><defs><style>.cls-1{fill:#fff;}</style></defs><g id="Layer_2" data-name="Layer 2"><g id="Layer_1-2" data-name="Layer 1"><path class="cls-1" d="M287.71,56.76a.78.78,0,0,1-.41-.12c-25-15.71-25-32.56-25-55.88a.76.76,0,0,1,.76-.76h49.3a.76.76,0,0,1,.76.76c0,7.59,0,14.75-.95,21.36-2.26,14.3-10.35,25.92-24.05,34.52A.78.78,0,0,1,287.71,56.76ZM263.82,1.52c0,22.31.27,38.55,23.89,53.58,13.07-8.34,20.79-19.51,23-33.21.91-6.27.94-13.12.94-20.37Z"/><path class="cls-1" d="M287.71,38a13.77,13.77,0,1,1,13.78-13.77A13.79,13.79,0,0,1,287.71,38Zm0-26A12.25,12.25,0,1,0,300,24.23,12.26,12.26,0,0,0,287.71,12Z"/><path class="cls-1" d="M286.35,31.23a.74.74,0,0,1-.59-.28l-3.34-4a.77.77,0,0,1,.11-1.08.76.76,0,0,1,1.07.11l2.68,3.25,6-9.12a.76.76,0,1,1,1.27.83l-6.54,10a.75.75,0,0,1-.59.34Z"/><path class="cls-1" d="M48.31.42,34,45.27H18.78L5.08.42h13.7L26.4,30.58l8-30.16Z"/><path class="cls-1" d="M82.15,32.22H58.33a6.85,6.85,0,0,0,1.25,3.12,6.17,6.17,0,0,0,5.19,2.4,5.26,5.26,0,0,0,4.73-2.36H81.43A13.51,13.51,0,0,1,77,42.18a18,18,0,0,1-6,3.09,23.43,23.43,0,0,1-6.83,1,19.52,19.52,0,0,1-9.66-2.36,15.36,15.36,0,0,1-6.9-8.08,18.67,18.67,0,0,1-1.35-7,16,16,0,0,1,6-13,17.5,17.5,0,0,1,11.53-4,17.82,17.82,0,0,1,11.76,4Q82.13,21.45,82.15,32.22ZM69.67,25.49a6.39,6.39,0,0,0-1-3.12,5.09,5.09,0,0,0-4.4-2.1,5.61,5.61,0,0,0-4.47,1.93,6.38,6.38,0,0,0-1.28,3.29Z"/><path class="cls-1" d="M95.55,13v4.54q3.72-5.27,9.56-5.26a14.33,14.33,0,0,1,3.45.49V22.93a13.71,13.71,0,0,0-3.18-.43c-3.44,0-5.9,1.13-7.36,3.38a10.89,10.89,0,0,0-1.35,5.88V45.27H84.45V13Z"/><path class="cls-1" d="M122.46.42V9.13H110.24V.42Zm0,12.55v32.3H110.24V13Z"/><path class="cls-1" d="M141.08,20.2V45.27H128.86V20.2h-4.5V13h4.5V11.46a12.16,12.16,0,0,1,1.78-7A9.1,9.1,0,0,1,135.73.92a19.89,19.89,0,0,1,5.55-.63c.75,0,2.79.05,6.14.13V9c-.85-.09-1.48-.14-1.9-.14-1.82,0-3,.33-3.61,1a3.33,3.33,0,0,0-.83,2.36V13h6.34V20.2Z"/><path class="cls-1" d="M161.62.42V9.13H149.4V.42Zm0,12.55v32.3H149.4V13Z"/><path class="cls-1" d="M199.92,32.22H176.1a6.85,6.85,0,0,0,1.25,3.12,6.17,6.17,0,0,0,5.19,2.4,5.26,5.26,0,0,0,4.73-2.36H199.2a13.45,13.45,0,0,1-4.44,6.8,18,18,0,0,1-6,3.09,23.43,23.43,0,0,1-6.83,1,19.55,19.55,0,0,1-9.66-2.36,15.36,15.36,0,0,1-6.9-8.08,18.67,18.67,0,0,1-1.35-7,16.05,16.05,0,0,1,6-13,17.5,17.5,0,0,1,11.53-4,17.82,17.82,0,0,1,11.76,4Q199.9,21.45,199.92,32.22Zm-12.48-6.73a6.39,6.39,0,0,0-1-3.12,5.08,5.08,0,0,0-4.4-2.1,5.62,5.62,0,0,0-4.47,1.93,6.47,6.47,0,0,0-1.28,3.29Z"/><path class="cls-1" d="M237.17.42V45.27H225.64V41.55a12.29,12.29,0,0,1-3.18,3.09,12.64,12.64,0,0,1-6.71,1.64q-6.88,0-10.54-4.73-3.78-4.89-3.78-12.35t3.81-12.28a12.44,12.44,0,0,1,10.25-5A11.87,11.87,0,0,1,225,16.26V.42Zm-17.9,20.7A4.63,4.63,0,0,0,215,23.55a10.21,10.21,0,0,0-1.25,5.22,10.12,10.12,0,0,0,1.51,5.75,4.4,4.4,0,0,0,3.91,2,5.12,5.12,0,0,0,4.63-2.63,10,10,0,0,0,1.25-5.25,9.55,9.55,0,0,0-1.18-5.13A5,5,0,0,0,219.27,21.12Z"/><path class="cls-1" d="M22.39,107.16l-3.12,9.16H0L23.61,51.86H43.07l23.61,64.46H46.85l-3-9.16Zm4.48-13.32H39.48l-6-19Z"/><path class="cls-1" d="M67.11,101.21H84q.52,6.47,7.51,6.47a5.87,5.87,0,0,0,4.15-1.32,3.7,3.7,0,0,0,1.23-2.84,3.26,3.26,0,0,0-2.5-3.21q-1.27-.42-12.33-2.6-7.17-1.41-10.53-5a12.43,12.43,0,0,1-3.45-8.79,12.69,12.69,0,0,1,5.72-11Q80.15,68.43,91,68.43a33.32,33.32,0,0,1,13.41,2.36q5.67,2.5,7.51,7.28A23.83,23.83,0,0,1,113,83.5H96.58a6.19,6.19,0,0,0-1.18-3q-1.47-1.71-4.87-1.71a7.65,7.65,0,0,0-4,1,2.73,2.73,0,0,0-1.42,2.41c0,1.26.77,2.19,2.32,2.79a20.09,20.09,0,0,0,4.86,1q7.27,1,10.11,1.75,6.51,1.71,9.58,6.14a13.85,13.85,0,0,1,2.51,8.12,12.83,12.83,0,0,1-5.77,11.15q-6.6,4.68-17.75,4.67-9.4,0-15.49-3.3-6.33-3.41-7.79-9.07A27.22,27.22,0,0,1,67.11,101.21Z"/><path class="cls-1" d="M139.13,54.93v15h8.41V80.29h-8.41V97.57c0,2.17.5,3.69,1.51,4.54a4.88,4.88,0,0,0,3.07.94,25.13,25.13,0,0,0,3.83-.42V116a73.12,73.12,0,0,1-11.95,1.09q-9.26,0-12.61-6a13.92,13.92,0,0,1-1.37-6q0-1.14,0-6.1V80.29h-6.47V69.9h6.47v-15Z"/><path class="cls-1" d="M166.19,69.9v6.51q5.34-7.55,13.74-7.55a20.43,20.43,0,0,1,5,.71V84.21a20.22,20.22,0,0,0-4.58-.62q-7.41,0-10.58,4.87-1.93,3-1.94,8.45v19.41H150.23V69.9Z"/><path class="cls-1" d="M212.33,68.43a27.74,27.74,0,0,1,13.27,3.36A22.34,22.34,0,0,1,235.38,82a25.24,25.24,0,0,1,2.45,11.14q0,10.73-7.08,17.57a24.82,24.82,0,0,1-9,5.43,29,29,0,0,1-9.73,1.65,28.19,28.19,0,0,1-13.6-3.35,22.35,22.35,0,0,1-9.78-10.2,24.9,24.9,0,0,1-2.45-11q0-11,7.08-17.66Q200.81,68.43,212.33,68.43Zm-.43,12.23q-8,0-8,12.33,0,12.57,8.08,12.56t8.12-12.37Q220.12,80.67,211.9,80.66Z"/><path class="cls-1" d="M258.71,51.86v64.46H241.14V51.86Z"/><path class="cls-1" d="M288.22,68.43a27.71,27.71,0,0,1,13.27,3.36A22.34,22.34,0,0,1,311.27,82a25.1,25.1,0,0,1,2.45,11.14q0,10.73-7.08,17.57a24.74,24.74,0,0,1-9,5.43,29,29,0,0,1-9.73,1.65,28.21,28.21,0,0,1-13.6-3.35,22.4,22.4,0,0,1-9.78-10.2,25,25,0,0,1-2.45-11q0-11,7.08-17.66Q276.7,68.43,288.22,68.43Zm-.42,12.23q-8,0-8,12.33,0,12.57,8.07,12.56T296,93.18Q296,80.67,287.8,80.66Z"/><path class="cls-1" d="M365.82,69.9v33.86a84.78,84.78,0,0,1-.43,9q-1,10.68-7.51,15.21-5.47,3.87-16.43,3.87-12.24,0-17.76-5.67a17.69,17.69,0,0,1-4.44-8.92h16.53q1.61,3.16,6,3.16c2.93,0,4.92-.91,5.95-2.74.7-1.29,1-3.62,1-7v-1.46a20.52,20.52,0,0,1-12.75,4.49q-9.44,0-15-6.38-5.14-5.89-5.15-15.44,0-12.09,7.23-18.8a17.45,17.45,0,0,1,12.28-4.63q9.92,0,14.4,7.8V69.9ZM341.07,81.66a8.15,8.15,0,0,0-6.05,2.5,9.64,9.64,0,0,0-2.59,7.13,10.3,10.3,0,0,0,2.69,7.42,8.21,8.21,0,0,0,12.42-.52,10.91,10.91,0,0,0,2-6.85,10.69,10.69,0,0,0-1.84-6.66A7.73,7.73,0,0,0,341.07,81.66Z"/><path class="cls-1" d="M421.68,97.57H387.44a10,10,0,0,0,1.8,4.49,8.85,8.85,0,0,0,7.46,3.45,7.58,7.58,0,0,0,6.8-3.4h17.14a19.3,19.3,0,0,1-6.37,9.77,25.68,25.68,0,0,1-8.69,4.44,33.18,33.18,0,0,1-9.82,1.46,28.13,28.13,0,0,1-13.89-3.4A22.13,22.13,0,0,1,372,102.77a26.89,26.89,0,0,1-1.93-10,23.06,23.06,0,0,1,8.59-18.65,25.15,25.15,0,0,1,16.58-5.67,25.62,25.62,0,0,1,16.91,5.76Q421.64,82.08,421.68,97.57Zm-17.94-9.68a9.24,9.24,0,0,0-1.47-4.49,7.31,7.31,0,0,0-6.33-3,8.07,8.07,0,0,0-6.42,2.79,9.26,9.26,0,0,0-1.84,4.72Z"/><path class="cls-1" d="M441,69.9v6.51q5.34-7.55,13.74-7.55a20.43,20.43,0,0,1,5,.71V84.21a20.22,20.22,0,0,0-4.58-.62q-7.41,0-10.58,4.87-1.94,3-1.93,8.45v19.41H425V69.9Z"/><path class="cls-1" d="M460.55,101.21h16.86q.52,6.47,7.51,6.47a5.87,5.87,0,0,0,4.15-1.32,3.7,3.7,0,0,0,1.23-2.84,3.26,3.26,0,0,0-2.5-3.21q-1.28-.42-12.33-2.6-7.17-1.41-10.53-5a12.42,12.42,0,0,1-3.44-8.79,12.68,12.68,0,0,1,5.71-11q6.38-4.55,17.19-4.54a33.32,33.32,0,0,1,13.41,2.36q5.67,2.5,7.51,7.28a24.29,24.29,0,0,1,1.14,5.43H490a6.19,6.19,0,0,0-1.18-3q-1.47-1.71-4.87-1.71a7.65,7.65,0,0,0-4,1,2.75,2.75,0,0,0-1.42,2.41c0,1.26.78,2.19,2.32,2.79a20.2,20.2,0,0,0,4.86,1q7.27,1,10.11,1.75,6.51,1.71,9.59,6.14a13.91,13.91,0,0,1,2.5,8.12,12.84,12.84,0,0,1-5.76,11.15q-6.62,4.68-17.76,4.67-9.4,0-15.49-3.3-6.33-3.41-7.79-9.07A28.51,28.51,0,0,1,460.55,101.21Z"/></g></g></svg>